STARTFONT 2.1
FONT -MIT-25FR3 KST-Medium-R-Normal--25-9-200-200-P-16-ISO8859-1
SIZE 9 200 200
FONTBOUNDINGBOX 16 25 -7 -5
STARTPROPERTIES 17
ADD_STYLE_NAME ""
AVERAGE_WIDTH 16
CHARSET_ENCODING "1"
CHARSET_REGISTRY "ISO8859"
DEFAULT_CHAR 0
FAMILY "25FR3 KST"
FONT_ASCENT 20
FONT_DESCENT 5
FOUNDRY "MIT"
PIXEL_SIZE 25
POINT_SIZE 9
RESOLUTION_X 200
RESOLUTION_Y 200
SETWIDTH_NAME "Normal"
SLANT "R"
SPACING "P"
WEIGHT_NAME "Medium"
ENDPROPERTIES
CHARS 127
STARTCHAR char0
ENCODING 0
SWIDTH 1776 0
DWIDTH 16 0
BBX 13 25 0 -5
BITMAP
FFF8
FFF8
FFF8
FFF8
FFF8
FFF8
FFF8
FFF8
FFF8
FFF8
FFF8
FFF8
FFF8
FFF8
FFF8
FFF8
FFF8
FFF8
FFF8
FFF8
FFF8
FFF8
FFF8
FFF8
FFF8
ENDCHAR
STARTCHAR char1
ENCODING 1
SWIDTH 1776 0
DWIDTH 16 0
BBX 12 25 1 -5
BITMAP
0600
0600
0600
0600
0600
0600
0600
0600
0600
0600
8610
C630
E670
6660
76E0
36C0
1F80
1F80
0F00
0600
0000
0000
0000
0000
0000
ENDCHAR
STARTCHAR char2
ENCODING 2
SWIDTH 1776 0
DWIDTH 16 0
BBX 14 25 0 -5
BITMAP
0000
0000
0000
0000
0000
0000
000C
1E18
3F18
61B0
40F0
C0E0
C060
C060
C060
C0E0
40F0
61B0
3F1C
1E04
0000
0000
0000
0000
0000
ENDCHAR
STARTCHAR char3
ENCODING 3
SWIDTH 1776 0
DWIDTH 16 0
BBX 14 25 0 -5
BITMAP
00E0
03F0
07F8
0E38
1C18
1818
3030
3030
6060
60C0
61C0
60F0
E038
E01C
E01C
E01C
E01C
F838
FFF0
CFE0
C000
C000
C000
C000
C000
ENDCHAR
STARTCHAR char4
ENCODING 4
SWIDTH 1776 0
DWIDTH 16 0
BBX 14 25 0 -5
BITMAP
0000
0000
0000
0000
0000
0000
0000
0300
0780
0CC0
0CC0
1860
1860
3030
3030
6018
6018
C00C
C00C
8004
0000
0000
0000
0000
0000
ENDCHAR
STARTCHAR char5
ENCODING 5
SWIDTH 1776 0
DWIDTH 16 0
BBX 14 25 0 -5
BITMAP
0000
0000
0000
0000
0000
0000
0000
0000
0000
0000
FFFC
FFFC
000C
000C
000C
000C
0000
0000
0000
0000
0000
0000
0000
0000
0000
ENDCHAR
STARTCHAR char6
ENCODING 6
SWIDTH 1776 0
DWIDTH 16 0
BBX 9 25 2 -5
BITMAP
0000
0000
0000
0000
0000
0000
0000
0F80
3F00
7000
6000
C000
FE00
FE00
C000
6000
7000
3F00
0F80
0000
0000
0000
0000
0000
0000
ENDCHAR
STARTCHAR char7
ENCODING 7
SWIDTH 1776 0
DWIDTH 16 0
BBX 14 25 0 -5
BITMAP
0000
0000
0000
0000
0000
0000
0000
3F0C
FFFC
CCF0
8C60
0C60
1860
1860
1860
1860
3060
3060
3030
3030
0000
0000
0000
0000
0000
ENDCHAR
STARTCHAR char8
ENCODING 8
SWIDTH 1776 0
DWIDTH 16 0
BBX 14 25 0 -5
BITMAP
0000
0000
7800
FC00
8E00
8600
0300
0300
0180
0180
0180
03C0
07C0
0EC0
1C60
3860
7030
6030
C018
C01C
0000
0000
0000
0000
0000
ENDCHAR
STARTCHAR char9
ENCODING 9
SWIDTH 1776 0
DWIDTH 16 0
BBX 13 25 0 -5
BITMAP
0000
0000
0000
0008
C018
E038
7070
38E0
1DC0
0F80
0700
0700
0F00
0D80
1980
1980
1980
1980
1980
0F00
0600
0000
0000
0000
0000
ENDCHAR
STARTCHAR char10
ENCODING 10
SWIDTH 1776 0
DWIDTH 16 0
BBX 12 25 0 -5
BITMAP
0000
0000
0000
0FC0
3FF0
7070
6010
7000
3C00
0F00
0FC0
3FE0
7070
C030
C030
C030
E070
78E0
7FE0
1F80
0000
0000
0000
0000
0000
ENDCHAR
STARTCHAR char11
ENCODING 11
SWIDTH 1776 0
DWIDTH 16 0
BBX 12 25 1 -5
BITMAP
0600
0F00
1F80
1F80
36C0
76E0
6660
E670
C630
8610
0600
0600
0600
0600
0600
0600
0600
0600
0600
0600
0000
0000
0000
0000
0000
ENDCHAR
STARTCHAR char12
ENCODING 12
SWIDTH 1776 0
DWIDTH 16 0
BBX 14 25 0 -5
BITMAP
0000
0300
0300
0300
0300
0300
0300
FFFC
FFFC
0300
0300
0300
0300
0300
0300
0000
0000
FFFC
FFFC
0000
0000
0000
0000
0000
0000
ENDCHAR
STARTCHAR char13
ENCODING 13
SWIDTH 1776 0
DWIDTH 16 0
BBX 14 25 0 -5
BITMAP
0000
0000
0000
0000
0000
0780
1FE0
3330
6318
4308
C30C
FFFC
FFFC
C30C
4308
6318
3330
1FE0
0780
0000
0000
0000
0000
0000
0000
ENDCHAR
STARTCHAR char14
ENCODING 14
SWIDTH 1776 0
DWIDTH 16 0
BBX 14 25 0 -5
BITMAP
0000
0000
0000
0000
0000
0000
0000
0000
0000
3870
7CF8
C78C
C30C
C30C
C30C
C78C
7CF8
3870
0000
0000
0000
0000
0000
0000
0000
ENDCHAR
STARTCHAR char15
ENCODING 15
SWIDTH 1776 0
DWIDTH 16 0
BBX 12 25 1 -5
BITMAP
0F00
1FC0
1860
0030
0030
0030
0030
0030
0030
1F30
3FF0
6070
C030
C030
C030
C030
C060
61C0
7F80
1F00
0000
0000
0000
0000
0000
ENDCHAR
STARTCHAR char16
ENCODING 16
SWIDTH 1776 0
DWIDTH 16 0
BBX 14 25 0 -5
BITMAP
0000
0000
0000
0000
0000
0000
0000
07FC
1FFC
3800
7000
E000
C000
C000
C000
E000
7000
3800
1FFC
07FC
0000
0000
0000
0000
0000
ENDCHAR
STARTCHAR char17
ENCODING 17
SWIDTH 1776 0
DWIDTH 16 0
BBX 14 25 0 -5
BITMAP
0000
0000
0000
0000
0000
0000
0000
FF80
FFE0
0070
0038
001C
000C
000C
000C
001C
0038
0070
FFE0
FF80
0000
0000
0000
0000
0000
ENDCHAR
STARTCHAR char18
ENCODING 18
SWIDTH 1776 0
DWIDTH 16 0
BBX 11 25 1 -5
BITMAP
0000
0000
0000
0E00
3F80
71C0
E0E0
C060
C060
C060
C060
C060
C060
C060
C060
C060
C060
C060
C060
C060
0000
0000
0000
0000
0000
ENDCHAR
STARTCHAR char19
ENCODING 19
SWIDTH 1776 0
DWIDTH 16 0
BBX 11 25 1 -5
BITMAP
0000
0000
0000
C060
C060
C060
C060
C060
C060
C060
C060
C060
C060
C060
C060
C060
E0E0
71C0
3F80
0E00
0000
0000
0000
0000
0000
ENDCHAR
STARTCHAR char20
ENCODING 20
SWIDTH 1776 0
DWIDTH 16 0
BBX 14 25 0 -5
BITMAP
C00C
C00C
6018
6018
6018
3030
3030
3FF0
1FE0
1860
1860
0CC0
0CC0
0CC0
0780
0780
0780
0300
0300
0300
0000
0000
0000
0000
0000
ENDCHAR
STARTCHAR char21
ENCODING 21
SWIDTH 1776 0
DWIDTH 16 0
BBX 14 25 0 -5
BITMAP
FFFC
FFF8
0018
0018
0018
0018
0018
0018
0018
07F8
07F8
0018
0018
0018
0018
0018
0018
0018
FFF8
FFFC
0000
0000
0000
0000
0000
ENDCHAR
STARTCHAR char22
ENCODING 22
SWIDTH 1776 0
DWIDTH 16 0
BBX 14 25 0 -5
BITMAP
0000
0000
0000
0000
0000
0000
0000
0780
1FE0
3030
7878
4CC8
C78C
C30C
C78C
4CC8
7878
3030
1FE0
0780
0000
0000
0000
0000
0000
ENDCHAR
STARTCHAR char23
ENCODING 23
SWIDTH 1776 0
DWIDTH 16 0
BBX 14 25 0 -5
BITMAP
0000
0000
0000
0000
0000
0000
0000
0000
0840
1860
3030
6018
FFFC
FFFC
6018
3030
1860
0840
0000
0000
0000
0000
0000
0000
0000
ENDCHAR
STARTCHAR char24
ENCODING 24
SWIDTH 1776 0
DWIDTH 16 0
BBX 14 25 0 -5
BITMAP
0000
0000
0000
0000
0000
0000
0000
0000
0C00
1800
3000
6000
FFFC
FFFC
6000
3000
1800
0C00
0000
0000
0000
0000
0000
0000
0000
ENDCHAR
STARTCHAR char25
ENCODING 25
SWIDTH 1776 0
DWIDTH 16 0
BBX 14 25 0 -5
BITMAP
0000
0000
0000
0000
0000
0000
0000
0000
00C0
0060
0030
0018
FFFC
FFFC
0018
0030
0060
00C0
0000
0000
0000
0000
0000
0000
0000
ENDCHAR
STARTCHAR char26
ENCODING 26
SWIDTH 1776 0
DWIDTH 16 0
BBX 12 25 1 -5
BITMAP
0000
0000
0000
0000
0000
0000
0000
0030
0060
00C0
FFF0
FFF0
0300
0600
FFF0
FFF0
3000
6000
C000
0000
0000
0000
0000
0000
0000
ENDCHAR
STARTCHAR char27
ENCODING 27
SWIDTH 1776 0
DWIDTH 16 0
BBX 13 25 0 -5
BITMAP
0000
0000
0200
0200
0700
0700
0F80
1DC0
38E0
7070
F078
7070
38E0
1DC0
0F80
0700
0700
0200
0200
0000
0000
0000
0000
0000
0000
ENDCHAR
STARTCHAR char28
ENCODING 28
SWIDTH 1776 0
DWIDTH 16 0
BBX 12 25 1 -5
BITMAP
0000
0000
0000
0000
0030
00F0
03C0
0F00
3C00
F000
F000
3C00
0F00
03C0
00F0
0030
0000
0000
FFF0
FFF0
0000
0000
0000
0000
0000
ENDCHAR
STARTCHAR char29
ENCODING 29
SWIDTH 1776 0
DWIDTH 16 0
BBX 12 25 1 -5
BITMAP
0000
0000
0000
0000
C000
F000
3C00
0F00
03C0
00F0
00F0
03C0
0F00
3C00
F000
C000
0000
0000
FFF0
FFF0
0000
0000
0000
0000
0000
ENDCHAR
STARTCHAR char30
ENCODING 30
SWIDTH 1776 0
DWIDTH 16 0
BBX 12 25 1 -5
BITMAP
0000
0000
0000
0000
0000
0000
0000
0000
FFF0
FFF0
0000
0000
FFF0
FFF0
0000
0000
FFF0
FFF0
0000
0000
0000
0000
0000
0000
0000
ENDCHAR
STARTCHAR char31
ENCODING 31
SWIDTH 1776 0
DWIDTH 16 0
BBX 14 25 0 -5
BITMAP
0000
0000
0000
0000
0000
0000
0000
8004
C00C
C00C
6018
6018
3030
3030
1860
1860
0CC0
0CC0
0780
0300
0000
0000
0000
0000
0000
ENDCHAR
STARTCHAR char32
ENCODING 32
SWIDTH 1776 0
DWIDTH 16 0
BBX 1 25 0 -5
BITMAP
00
00
00
00
00
00
00
00
00
00
00
00
00
00
00
00
00
00
00
00
00
00
00
00
00
ENDCHAR
STARTCHAR char33
ENCODING 33
SWIDTH 1776 0
DWIDTH 16 0
BBX 3 25 6 -5
BITMAP
00
E0
E0
E0
E0
E0
E0
E0
E0
E0
E0
E0
E0
E0
00
00
00
E0
E0
E0
00
00
00
00
00
ENDCHAR
STARTCHAR char34
ENCODING 34
SWIDTH 1776 0
DWIDTH 16 0
BBX 8 25 4 -5
BITMAP
00
E7
E7
E7
E7
E7
E7
E7
E7
E7
00
00
00
00
00
00
00
00
00
00
00
00
00
00
00
ENDCHAR
STARTCHAR char35
ENCODING 35
SWIDTH 1776 0
DWIDTH 16 0
BBX 14 25 1 -5
BITMAP
0198
0198
0330
0330
0330
0660
0660
7FFC
7FFC
0CC0
0CC0
FFF8
FFF8
1980
1980
3300
3300
3300
6600
6600
0000
0000
0000
0000
0000
ENDCHAR
STARTCHAR char36
ENCODING 36
SWIDTH 1776 0
DWIDTH 16 0
BBX 14 25 1 -5
BITMAP
0300
0F30
3FF0
7BF0
7370
7330
7330
3B00
3F00
0FC0
03F0
0378
C33C
C31C
E31C
E31C
F31C
FB78
DFF0
CFC0
0300
0000
0000
0000
0000
ENDCHAR
STARTCHAR char37
ENCODING 37
SWIDTH 1776 0
DWIDTH 16 0
BBX 14 25 1 -5
BITMAP
0000
0038
7838
FC70
CC70
CCE0
CCE0
FDC0
79C0
0380
0380
0700
0700
0E78
0EFC
1CCC
1CCC
38CC
38FC
7078
7000
0000
0000
0000
0000
ENDCHAR
STARTCHAR char38
ENCODING 38
SWIDTH 1776 0
DWIDTH 16 0
BBX 15 25 1 -5
BITMAP
0000
0F00
1F80
39C0
30C0
30C0
39C0
1F80
0F1E
1F1E
3F8C
71D8
70D8
E0F0
E070
E0F0
E0F8
71DC
3F8E
1F06
0000
0000
0000
0000
0000
ENDCHAR
STARTCHAR char39
ENCODING 39
SWIDTH 1776 0
DWIDTH 16 0
BBX 3 25 7 -5
BITMAP
00
E0
E0
E0
E0
E0
E0
E0
E0
E0
00
00
00
00
00
00
00
00
00
00
00
00
00
00
00
ENDCHAR
STARTCHAR char40
ENCODING 40
SWIDTH 1776 0
DWIDTH 16 0
BBX 7 25 4 -5
BITMAP
0E
1C
1C
38
38
70
70
E0
E0
E0
E0
E0
E0
E0
E0
E0
E0
70
70
38
38
1C
1C
0E
00
ENDCHAR
STARTCHAR char41
ENCODING 41
SWIDTH 1776 0
DWIDTH 16 0
BBX 7 25 5 -5
BITMAP
E0
70
70
38
38
1C
1C
0E
0E
0E
0E
0E
0E
0E
0E
0E
0E
1C
1C
38
38
70
70
E0
00
ENDCHAR
STARTCHAR char42
ENCODING 42
SWIDTH 1776 0
DWIDTH 16 0
BBX 13 25 2 -5
BITMAP
0000
0000
0000
0200
0700
0700
0700
C718
E738
FFF8
7FF0
1FC0
0F80
1FC0
3DE0
78F0
7070
0000
0000
0000
0000
0000
0000
0000
0000
ENDCHAR
STARTCHAR char43
ENCODING 43
SWIDTH 1776 0
DWIDTH 16 0
BBX 13 25 1 -5
BITMAP
0000
0000
0000
0000
0000
0700
0700
0700
0700
0700
FFF8
FFF8
FFF8
0700
0700
0700
0700
0700
0000
0000
0000
0000
0000
0000
0000
ENDCHAR
STARTCHAR char44
ENCODING 44
SWIDTH 1776 0
DWIDTH 16 0
BBX 5 25 5 -5
BITMAP
00
00
00
00
00
00
00
00
00
00
00
00
00
00
00
00
70
F8
F8
78
38
70
E0
C0
00
ENDCHAR
STARTCHAR char45
ENCODING 45
SWIDTH 1776 0
DWIDTH 16 0
BBX 10 25 3 -5
BITMAP
0000
0000
0000
0000
0000
0000
0000
0000
0000
0000
FFC0
FFC0
FFC0
0000
0000
0000
0000
0000
0000
0000
0000
0000
0000
0000
0000
ENDCHAR
STARTCHAR char46
ENCODING 46
SWIDTH 1776 0
DWIDTH 16 0
BBX 5 25 6 -5
BITMAP
00
00
00
00
00
00
00
00
00
00
00
00
00
00
00
00
70
F8
F8
70
00
00
00
00
00
ENDCHAR
STARTCHAR char47
ENCODING 47
SWIDTH 1776 0
DWIDTH 16 0
BBX 11 25 3 -5
BITMAP
00E0
00E0
01C0
01C0
0380
0380
0300
0700
0700
0600
0E00
0C00
1C00
1C00
3800
3800
7000
7000
6000
E000
E000
0000
0000
0000
0000
ENDCHAR
STARTCHAR char48
ENCODING 48
SWIDTH 1776 0
DWIDTH 16 0
BBX 11 25 2 -5
BITMAP
0000
1F00
3F80
7BC0
71C0
E0E0
E0E0
E0E0
E0E0
E0E0
E0E0
E0E0
E0E0
E0E0
E0E0
E0E0
71C0
7BC0
3F80
1F00
0000
0000
0000
0000
0000
ENDCHAR
STARTCHAR char49
ENCODING 49
SWIDTH 1776 0
DWIDTH 16 0
BBX 9 25 4 -5
BITMAP
0000
3C00
7C00
FC00
1C00
1C00
1C00
1C00
1C00
1C00
1C00
1C00
1C00
1C00
1C00
1C00
1C00
1C00
FF80
FF80
0000
0000
0000
0000
0000
ENDCHAR
STARTCHAR char50
ENCODING 50
SWIDTH 1776 0
DWIDTH 16 0
BBX 12 25 2 -5
BITMAP
0000
1FC0
3FE0
70F0
7070
7070
0070
00E0
01E0
03C0
0780
0F00
1E00
3C00
7800
F000
E030
E030
FFF0
FFF0
0000
0000
0000
0000
0000
ENDCHAR
STARTCHAR char51
ENCODING 51
SWIDTH 1776 0
DWIDTH 16 0
BBX 12 25 2 -5
BITMAP
0000
1F00
3F80
71C0
70E0
00E0
00E0
00E0
01C0
0F80
0FC0
01E0
0070
0070
0070
C070
E070
F1E0
7FC0
1F80
0000
0000
0000
0000
0000
ENDCHAR
STARTCHAR char52
ENCODING 52
SWIDTH 1776 0
DWIDTH 16 0
BBX 13 25 1 -5
BITMAP
0000
01E0
03E0
03E0
07E0
0EE0
0CE0
1CE0
18E0
38E0
30E0
70E0
E0E0
FFF8
FFF8
00E0
00E0
00E0
03F8
03F8
0000
0000
0000
0000
0000
ENDCHAR
STARTCHAR char53
ENCODING 53
SWIDTH 1776 0
DWIDTH 16 0
BBX 12 25 2 -5
BITMAP
0000
3FE0
3FE0
3860
3860
3800
7000
7780
7FC0
78E0
7060
0070
0070
0070
0070
E070
E0E0
71E0
3FC0
1F80
0000
0000
0000
0000
0000
ENDCHAR
STARTCHAR char54
ENCODING 54
SWIDTH 1776 0
DWIDTH 16 0
BBX 12 25 2 -5
BITMAP
0000
0FC0
1FE0
3860
3000
6000
6000
E780
EFC0
F8E0
F070
E070
E070
E070
E070
6070
7060
38E0
1FC0
0F80
0000
0000
0000
0000
0000
ENDCHAR
STARTCHAR char55
ENCODING 55
SWIDTH 1776 0
DWIDTH 16 0
BBX 11 25 3 -5
BITMAP
0000
FFE0
FFE0
C0E0
C1C0
01C0
0380
0380
0300
0700
0700
0E00
0E00
1C00
1C00
3800
3800
3800
7000
7000
0000
0000
0000
0000
0000
ENDCHAR
STARTCHAR char56
ENCODING 56
SWIDTH 1776 0
DWIDTH 16 0
BBX 13 25 1 -5
BITMAP
0000
1FC0
3FE0
78F0
7070
7070
7070
7070
38E0
1FC0
3FE0
7070
E038
E038
E038
E038
E038
7070
3FE0
1FC0
0000
0000
0000
0000
0000
ENDCHAR
STARTCHAR char57
ENCODING 57
SWIDTH 1776 0
DWIDTH 16 0
BBX 12 25 2 -5
BITMAP
0000
1F00
3FC0
78C0
7060
E060
E070
E070
E070
E070
E070
70F0
3FF0
1F70
0060
00E0
00C0
71C0
7F80
3F00
0000
0000
0000
0000
0000
ENDCHAR
STARTCHAR char58
ENCODING 58
SWIDTH 1776 0
DWIDTH 16 0
BBX 5 25 6 -5
BITMAP
00
00
00
00
00
00
00
70
F8
F8
70
00
00
00
00
00
70
F8
F8
70
00
00
00
00
00
ENDCHAR
STARTCHAR char59
ENCODING 59
SWIDTH 1776 0
DWIDTH 16 0
BBX 5 25 6 -5
BITMAP
00
00
00
00
00
00
00
70
F8
F8
70
00
00
00
00
00
70
F8
F8
78
38
70
E0
C0
00
ENDCHAR
STARTCHAR char60
ENCODING 60
SWIDTH 1776 0
DWIDTH 16 0
BBX 12 25 1 -5
BITMAP
0000
0070
00E0
01C0
0380
0700
0E00
1C00
3800
7000
E000
7000
3800
1C00
0E00
0700
0380
01C0
00E0
0070
0000
0000
0000
0000
0000
ENDCHAR
STARTCHAR char61
ENCODING 61
SWIDTH 1776 0
DWIDTH 16 0
BBX 11 25 2 -5
BITMAP
0000
0000
0000
0000
0000
0000
0000
FFE0
FFE0
FFE0
0000
0000
0000
FFE0
FFE0
FFE0
0000
0000
0000
0000
0000
0000
0000
0000
0000
ENDCHAR
STARTCHAR char62
ENCODING 62
SWIDTH 1776 0
DWIDTH 16 0
BBX 12 25 3 -5
BITMAP
0000
E000
7000
3800
1C00
0E00
0700
0380
01C0
00E0
0070
00E0
01C0
0380
0700
0E00
1C00
3800
7000
E000
0000
0000
0000
0000
0000
ENDCHAR
STARTCHAR char63
ENCODING 63
SWIDTH 1776 0
DWIDTH 16 0
BBX 10 25 4 -5
BITMAP
0000
3F00
7F80
F3C0
E1C0
E1C0
01C0
03C0
0780
0F00
1E00
1C00
1C00
1C00
1C00
0000
0000
1C00
1C00
1C00
0000
0000
0000
0000
0000
ENDCHAR
STARTCHAR char64
ENCODING 64
SWIDTH 1776 0
DWIDTH 16 0
BBX 12 25 2 -5
BITMAP
0000
1F80
3FC0
70E0
6070
E030
C3F0
C7F0
CE70
CC30
CC30
CC30
CE70
C7F0
C3E0
E000
6000
7180
3F80
1F80
0000
0000
0000
0000
0000
ENDCHAR
STARTCHAR char65
ENCODING 65
SWIDTH 1776 0
DWIDTH 16 0
BBX 16 25 0 -5
BITMAP
0000
03C0
03C0
03E0
06E0
06E0
06E0
0E70
0E70
0C70
0C38
1C38
1FF8
1FF8
181C
381C
301C
300E
F81F
F81F
0000
0000
0000
0000
0000
ENDCHAR
STARTCHAR char66
ENCODING 66
SWIDTH 1776 0
DWIDTH 16 0
BBX 13 25 2 -5
BITMAP
0000
FF80
FFE0
70F0
7070
7070
7070
7070
70E0
7FC0
7FC0
70E0
7070
7038
7038
7038
7078
70F0
FFE0
FF80
0000
0000
0000
0000
0000
ENDCHAR
STARTCHAR char67
ENCODING 67
SWIDTH 1776 0
DWIDTH 16 0
BBX 12 25 2 -5
BITMAP
0000
07B0
1FF0
3C70
7830
7010
E000
E000
E000
E000
E000
E000
E000
E000
E000
7030
7030
3870
3FE0
0FC0
0000
0000
0000
0000
0000
ENDCHAR
STARTCHAR char68
ENCODING 68
SWIDTH 1776 0
DWIDTH 16 0
BBX 13 25 2 -5
BITMAP
0000
FF00
FFC0
70E0
7070
7070
7038
7038
7038
7038
7038
7038
7038
7038
7038
7070
7070
70E0
FFC0
FF00
0000
0000
0000
0000
0000
ENDCHAR
STARTCHAR char69
ENCODING 69
SWIDTH 1776 0
DWIDTH 16 0
BBX 12 25 2 -5
BITMAP
0000
FFE0
FFE0
7060
7020
7000
7000
7080
7180
7F80
7F80
7180
7080
7000
7000
7010
7030
7070
FFF0
FFF0
0000
0000
0000
0000
0000
ENDCHAR
STARTCHAR char70
ENCODING 70
SWIDTH 1776 0
DWIDTH 16 0
BBX 12 25 2 -5
BITMAP
0000
FFF0
FFF0
7030
7010
7000
7000
7080
7180
7F80
7F80
7180
7080
7000
7000
7000
7000
7000
F800
F800
0000
0000
0000
0000
0000
ENDCHAR
STARTCHAR char71
ENCODING 71
SWIDTH 1776 0
DWIDTH 16 0
BBX 13 25 1 -5
BITMAP
0000
0FA0
3FE0
78E0
7060
E020
E000
E000
E000
E1F8
E1F8
E070
E070
E070
E070
E070
7070
78F0
3FB0
1F30
0000
0000
0000
0000
0000
ENDCHAR
STARTCHAR char72
ENCODING 72
SWIDTH 1776 0
DWIDTH 16 0
BBX 14 25 1 -5
BITMAP
0000
F87C
F87C
7038
7038
7038
7038
7038
7038
7FF8
7FF8
7038
7038
7038
7038
7038
7038
7038
F87C
F87C
0000
0000
0000
0000
0000
ENDCHAR
STARTCHAR char73
ENCODING 73
SWIDTH 1776 0
DWIDTH 16 0
BBX 9 25 4 -5
BITMAP
0000
FF80
FF80
1C00
1C00
1C00
1C00
1C00
1C00
1C00
1C00
1C00
1C00
1C00
1C00
1C00
1C00
1C00
FF80
FF80
0000
0000
0000
0000
0000
ENDCHAR
STARTCHAR char74
ENCODING 74
SWIDTH 1776 0
DWIDTH 16 0
BBX 14 25 1 -5
BITMAP
0000
01FC
01FC
0070
0070
0070
0070
0070
0070
0070
0070
0070
E070
E070
E070
E070
E070
70E0
3FC0
1F80
0000
0000
0000
0000
0000
ENDCHAR
STARTCHAR char75
ENCODING 75
SWIDTH 1776 0
DWIDTH 16 0
BBX 15 25 1 -5
BITMAP
0000
F9F8
F9F8
70E0
71C0
7380
7700
7600
7C00
7800
7C00
7E00
7F00
7780
73C0
71E0
70F0
7078
F8FE
F8FE
0000
0000
0000
0000
0000
ENDCHAR
STARTCHAR char76
ENCODING 76
SWIDTH 1776 0
DWIDTH 16 0
BBX 12 25 2 -5
BITMAP
0000
F800
F800
7000
7000
7000
7000
7000
7000
7000
7000
7000
7000
7000
7000
7030
7030
7070
FFF0
FFF0
0000
0000
0000
0000
0000
ENDCHAR
STARTCHAR char77
ENCODING 77
SWIDTH 1776 0
DWIDTH 16 0
BBX 14 25 1 -5
BITMAP
0000
F87C
F87C
7CF8
7CF8
7CB8
6FB8
6FB8
6FB8
6738
6738
6738
6238
6038
6038
6038
6038
6038
F07C
F07C
0000
0000
0000
0000
0000
ENDCHAR
STARTCHAR char78
ENCODING 78
SWIDTH 1776 0
DWIDTH 16 0
BBX 14 25 1 -5
BITMAP
0000
F03C
F83C
7818
7818
7C18
7C18
6E18
6E18
6E18
6718
6718
6798
6398
6398
61D8
61D8
60F8
F0F8
F078
0000
0000
0000
0000
0000
ENDCHAR
STARTCHAR char79
ENCODING 79
SWIDTH 1776 0
DWIDTH 16 0
BBX 14 25 1 -5
BITMAP
0000
0780
1FE0
3CF0
7878
7038
E01C
E01C
E01C
E01C
E01C
E01C
E01C
E01C
E01C
7038
7878
3CF0
1FE0
0780
0000
0000
0000
0000
0000
ENDCHAR
STARTCHAR char80
ENCODING 80
SWIDTH 1776 0
DWIDTH 16 0
BBX 12 25 2 -5
BITMAP
0000
FF00
FFC0
70E0
7070
7070
7070
7070
7070
7070
70E0
7FC0
7F00
7000
7000
7000
7000
7000
F800
F800
0000
0000
0000
0000
0000
ENDCHAR
STARTCHAR char81
ENCODING 81
SWIDTH 1776 0
DWIDTH 16 0
BBX 15 25 1 -5
BITMAP
0000
0780
1FE0
3CF0
7878
7038
E01C
E01C
E01C
E01C
E01C
E01C
E01C
E01C
E39C
77B8
74F8
3CF0
1FE0
07F0
007E
003E
0000
0000
0000
ENDCHAR
STARTCHAR char82
ENCODING 82
SWIDTH 1776 0
DWIDTH 16 0
BBX 15 25 1 -5
BITMAP
0000
FF80
FFE0
70F0
7070
7070
7070
7070
7070
70E0
7FC0
7F80
7380
71C0
70E0
70E0
7070
7038
F83C
F81E
0000
0000
0000
0000
0000
ENDCHAR
STARTCHAR char83
ENCODING 83
SWIDTH 1776 0
DWIDTH 16 0
BBX 13 25 2 -5
BITMAP
0000
0F30
3FF0
38F0
7070
7030
7830
3C00
1F00
0F80
03E0
00F0
C078
C038
E038
E038
F078
F8F0
DFE0
CF80
0000
0000
0000
0000
0000
ENDCHAR
STARTCHAR char84
ENCODING 84
SWIDTH 1776 0
DWIDTH 16 0
BBX 13 25 2 -5
BITMAP
0000
FFF8
FFF8
C718
C718
0700
0700
0700
0700
0700
0700
0700
0700
0700
0700
0700
0700
0700
0F80
0F80
0000
0000
0000
0000
0000
ENDCHAR
STARTCHAR char85
ENCODING 85
SWIDTH 1776 0
DWIDTH 16 0
BBX 14 25 1 -5
BITMAP
0000
F83C
F83C
7018
7018
7018
7018
7018
7018
7018
7018
7018
7018
7018
7018
7018
7018
3830
3FF0
1FE0
0000
0000
0000
0000
0000
ENDCHAR
STARTCHAR char86
ENCODING 86
SWIDTH 1776 0
DWIDTH 16 0
BBX 15 25 0 -5
BITMAP
0000
F81E
F81E
700C
700C
381C
3818
3818
3838
1C30
1C30
1C70
0E60
0E60
0E60
0EC0
06C0
07C0
0380
0380
0000
0000
0000
0000
0000
ENDCHAR
STARTCHAR char87
ENCODING 87
SWIDTH 1776 0
DWIDTH 16 0
BBX 16 25 0 -5
BITMAP
0000
F80F
F80F
7006
7006
7006
700E
380E
388C
388C
39CC
39CC
3BCC
1B7C
1F7C
1E38
1E38
1E18
0C18
0C18
0000
0000
0000
0000
0000
ENDCHAR
STARTCHAR char88
ENCODING 88
SWIDTH 1776 0
DWIDTH 16 0
BBX 15 25 0 -5
BITMAP
0000
7E3E
7E3E
1C18
1C30
0E30
0E60
0760
07C0
03C0
0380
07C0
07C0
0CE0
0CE0
1870
1870
3038
F87E
F87E
0000
0000
0000
0000
0000
ENDCHAR
STARTCHAR char89
ENCODING 89
SWIDTH 1776 0
DWIDTH 16 0
BBX 13 25 1 -5
BITMAP
0000
F878
F878
7030
7030
3860
3860
1CC0
1CC0
0C80
0F80
0700
0700
0700
0700
0700
0700
0700
0F80
0F80
0000
0000
0000
0000
0000
ENDCHAR
STARTCHAR char90
ENCODING 90
SWIDTH 1776 0
DWIDTH 16 0
BBX 13 25 1 -5
BITMAP
0000
7FF8
7FF8
6038
6070
0070
00E0
01C0
01C0
0380
0700
0E00
0E00
1C00
3800
7000
7018
E018
FFF8
FFF8
0000
0000
0000
0000
0000
ENDCHAR
STARTCHAR char91
ENCODING 91
SWIDTH 1776 0
DWIDTH 16 0
BBX 9 25 2 -5
BITMAP
FF80
FF80
E000
E000
E000
E000
E000
E000
E000
E000
E000
E000
E000
E000
E000
E000
E000
E000
E000
E000
E000
E000
FF80
FF80
0000
ENDCHAR
STARTCHAR char92
ENCODING 92
SWIDTH 1776 0
DWIDTH 16 0
BBX 12 25 2 -5
BITMAP
E000
E000
7000
7000
3800
3800
1800
1C00
1C00
0C00
0E00
0600
0700
0700
0380
0380
01C0
01C0
00C0
00E0
00E0
0060
0070
0070
0000
ENDCHAR
STARTCHAR char93
ENCODING 93
SWIDTH 1776 0
DWIDTH 16 0
BBX 9 25 5 -5
BITMAP
FF80
FF80
0380
0380
0380
0380
0380
0380
0380
0380
0380
0380
0380
0380
0380
0380
0380
0380
0380
0380
0380
0380
FF80
FF80
0000
ENDCHAR
STARTCHAR char94
ENCODING 94
SWIDTH 1776 0
DWIDTH 16 0
BBX 14 25 1 -5
BITMAP
0300
0780
0FC0
1CE0
3870
7038
E01C
0000
0000
0000
0000
0000
0000
0000
0000
0000
0000
0000
0000
0000
0000
0000
0000
0000
0000
ENDCHAR
STARTCHAR char95
ENCODING 95
SWIDTH 1776 0
DWIDTH 16 0
BBX 16 25 0 -5
BITMAP
0000
0000
0000
0000
0000
0000
0000
0000
0000
0000
0000
0000
0000
0000
0000
0000
0000
0000
0000
0000
0000
0000
0000
FFFF
FFFF
ENDCHAR
STARTCHAR char96
ENCODING 96
SWIDTH 1776 0
DWIDTH 16 0
BBX 11 25 2 -5
BITMAP
0000
E000
7000
3800
1C00
0E00
0700
0380
01C0
00E0
0000
0000
0000
0000
0000
0000
0000
0000
0000
0000
0000
0000
0000
0000
0000
ENDCHAR
STARTCHAR char97
ENCODING 97
SWIDTH 1776 0
DWIDTH 16 0
BBX 13 25 2 -5
BITMAP
0000
0000
0000
0000
0000
0000
3F80
7FC0
60E0
00E0
00E0
3EE0
7FE0
F1E0
E0E0
E0E0
E0E0
F1E0
7FF8
3E78
0000
0000
0000
0000
0000
ENDCHAR
STARTCHAR char98
ENCODING 98
SWIDTH 1776 0
DWIDTH 16 0
BBX 13 25 1 -5
BITMAP
0000
F000
F000
7000
7000
7000
77C0
7FE0
7870
7038
7038
7038
7038
7038
7038
7038
7038
7870
FFE0
F7C0
0000
0000
0000
0000
0000
ENDCHAR
STARTCHAR char99
ENCODING 99
SWIDTH 1776 0
DWIDTH 16 0
BBX 12 25 2 -5
BITMAP
0000
0000
0000
0000
0000
0000
1FC0
3FE0
78F0
F070
E000
E000
E000
E000
E000
E000
F070
78F0
3FE0
1FC0
0000
0000
0000
0000
0000
ENDCHAR
STARTCHAR char100
ENCODING 100
SWIDTH 1776 0
DWIDTH 16 0
BBX 13 25 2 -5
BITMAP
0000
00F0
00F0
0070
0070
0070
1F70
3FF0
70F0
E070
E070
E070
E070
E070
E070
E070
E070
70F0
3FF8
1F78
0000
0000
0000
0000
0000
ENDCHAR
STARTCHAR char101
ENCODING 101
SWIDTH 1776 0
DWIDTH 16 0
BBX 12 25 2 -5
BITMAP
0000
0000
0000
0000
0000
0000
1F80
3FC0
70E0
70E0
E070
E070
FFF0
FFF0
E000
E000
7070
7070
3FE0
1FC0
0000
0000
0000
0000
0000
ENDCHAR
STARTCHAR char102
ENCODING 102
SWIDTH 1776 0
DWIDTH 16 0
BBX 13 25 2 -5
BITMAP
0000
07F0
0FF8
1E38
1C00
1C00
FFC0
FFC0
1C00
1C00
1C00
1C00
1C00
1C00
1C00
1C00
1C00
1C00
7F00
7F00
0000
0000
0000
0000
0000
ENDCHAR
STARTCHAR char103
ENCODING 103
SWIDTH 1776 0
DWIDTH 16 0
BBX 13 25 2 -5
BITMAP
0000
0000
0000
0000
0000
0000
1F78
3FF8
70F0
E070
E070
E070
E070
E070
E070
E070
70F0
3FF0
1F70
0070
E070
E0E0
7FE0
3FC0
0000
ENDCHAR
STARTCHAR char104
ENCODING 104
SWIDTH 1776 0
DWIDTH 16 0
BBX 13 25 1 -5
BITMAP
0000
F000
F000
7000
7000
7000
77C0
7FE0
7CF0
7870
7070
7070
7070
7070
7070
7070
7070
7070
F8F8
F8F8
0000
0000
0000
0000
0000
ENDCHAR
STARTCHAR char105
ENCODING 105
SWIDTH 1776 0
DWIDTH 16 0
BBX 11 25 3 -5
BITMAP
0000
0E00
0E00
0E00
0000
0000
FE00
FE00
0E00
0E00
0E00
0E00
0E00
0E00
0E00
0E00
0E00
0E00
FFE0
FFE0
0000
0000
0000
0000
0000
ENDCHAR
STARTCHAR char106
ENCODING 106
SWIDTH 1776 0
DWIDTH 16 0
BBX 10 25 3 -5
BITMAP
0000
01C0
01C0
01C0
0000
0000
1FC0
1FC0
01C0
01C0
01C0
01C0
01C0
01C0
01C0
01C0
01C0
01C0
01C0
01C0
E1C0
E380
7F00
3E00
0000
ENDCHAR
STARTCHAR char107
ENCODING 107
SWIDTH 1776 0
DWIDTH 16 0
BBX 14 25 1 -5
BITMAP
0000
F000
F000
7000
7000
7000
73F0
73F0
71C0
7380
7700
7E00
7E00
7F00
7780
73C0
71E0
70F0
F9FC
F9FC
0000
0000
0000
0000
0000
ENDCHAR
STARTCHAR char108
ENCODING 108
SWIDTH 1776 0
DWIDTH 16 0
BBX 11 25 3 -5
BITMAP
0000
FE00
FE00
0E00
0E00
0E00
0E00
0E00
0E00
0E00
0E00
0E00
0E00
0E00
0E00
0E00
0E00
0E00
FFE0
FFE0
0000
0000
0000
0000
0000
ENDCHAR
STARTCHAR char109
ENCODING 109
SWIDTH 1776 0
DWIDTH 16 0
BBX 16 25 0 -5
BITMAP
0000
0000
0000
0000
0000
0000
EE78
FFFC
7BDE
718E
718E
718E
718E
718E
718E
718E
718E
718E
FBDF
FBDF
0000
0000
0000
0000
0000
ENDCHAR
STARTCHAR char110
ENCODING 110
SWIDTH 1776 0
DWIDTH 16 0
BBX 13 25 1 -5
BITMAP
0000
0000
0000
0000
0000
0000
F7C0
FFE0
78F0
7070
7070
7070
7070
7070
7070
7070
7070
7070
F8F8
F8F8
0000
0000
0000
0000
0000
ENDCHAR
STARTCHAR char111
ENCODING 111
SWIDTH 1776 0
DWIDTH 16 0
BBX 12 25 2 -5
BITMAP
0000
0000
0000
0000
0000
0000
1F80
3FC0
70E0
E070
E070
E070
E070
E070
E070
E070
E070
70E0
3FC0
1F80
0000
0000
0000
0000
0000
ENDCHAR
STARTCHAR char112
ENCODING 112
SWIDTH 1776 0
DWIDTH 16 0
BBX 12 25 2 -5
BITMAP
0000
0000
0000
0000
0000
0000
F780
FFC0
78E0
7070
7070
7070
7070
7070
7070
7070
7070
78E0
7FC0
7780
7000
7000
F800
F800
0000
ENDCHAR
STARTCHAR char113
ENCODING 113
SWIDTH 1776 0
DWIDTH 16 0
BBX 12 25 2 -5
BITMAP
0000
0000
0000
0000
0000
0000
1EF0
3FF0
71E0
E0E0
E0E0
E0E0
E0E0
E0E0
E0E0
E0E0
E0E0
71E0
3FE0
1EE0
00E0
00E0
01F0
01F0
0000
ENDCHAR
STARTCHAR char114
ENCODING 114
SWIDTH 1776 0
DWIDTH 16 0
BBX 13 25 2 -5
BITMAP
0000
0000
0000
0000
0000
0000
F3E0
F7F0
7E78
7C30
7800
7000
7000
7000
7000
7000
7000
7000
F800
F800
0000
0000
0000
0000
0000
ENDCHAR
STARTCHAR char115
ENCODING 115
SWIDTH 1776 0
DWIDTH 16 0
BBX 12 25 2 -5
BITMAP
0000
0000
0000
0000
0000
0000
1FC0
3FE0
78E0
7000
7800
3E00
1F80
07C0
01E0
00F0
E070
F0F0
7FE0
3FC0
0000
0000
0000
0000
0000
ENDCHAR
STARTCHAR char116
ENCODING 116
SWIDTH 1776 0
DWIDTH 16 0
BBX 12 25 2 -5
BITMAP
0000
0000
0400
0C00
1C00
1C00
FFE0
FFE0
1C00
1C00
1C00
1C00
1C00
1C00
1C00
1C70
1C70
1E70
0FE0
07C0
0000
0000
0000
0000
0000
ENDCHAR
STARTCHAR char117
ENCODING 117
SWIDTH 1776 0
DWIDTH 16 0
BBX 13 25 1 -5
BITMAP
0000
0000
0000
0000
0000
0000
F0F0
F0F0
7070
7070
7070
7070
7070
7070
7070
7070
7070
78F0
3FF8
1F78
0000
0000
0000
0000
0000
ENDCHAR
STARTCHAR char118
ENCODING 118
SWIDTH 1776 0
DWIDTH 16 0
BBX 14 25 1 -5
BITMAP
0000
0000
0000
0000
0000
0000
F83C
F83C
7018
3838
3830
1C70
1C60
1CE0
0EC0
0EC0
0780
0780
0300
0300
0000
0000
0000
0000
0000
ENDCHAR
STARTCHAR char119
ENCODING 119
SWIDTH 1776 0
DWIDTH 16 0
BBX 16 25 0 -5
BITMAP
0000
0000
0000
0000
0000
0000
F80F
F80F
7086
71C6
71CE
39CC
3BCC
3BEC
3E6C
1E7C
1C38
1C38
1C18
0818
0000
0000
0000
0000
0000
ENDCHAR
STARTCHAR char120
ENCODING 120
SWIDTH 1776 0
DWIDTH 16 0
BBX 15 25 1 -5
BITMAP
0000
0000
0000
0000
0000
0000
FC7C
FC7C
3830
1C60
0EC0
07C0
0380
0380
07C0
0CE0
1870
3038
F87E
F87E
0000
0000
0000
0000
0000
ENDCHAR
STARTCHAR char121
ENCODING 121
SWIDTH 1776 0
DWIDTH 16 0
BBX 15 25 1 -5
BITMAP
0000
0000
0000
0000
0000
0000
FC3E
FC3E
3818
3818
1C38
1C30
0E70
0E60
07E0
03C0
03C0
0180
0180
0380
0300
E700
FE00
7C00
0000
ENDCHAR
STARTCHAR char122
ENCODING 122
SWIDTH 1776 0
DWIDTH 16 0
BBX 12 25 2 -5
BITMAP
0000
0000
0000
0000
0000
0000
7FF0
7FF0
6070
60F0
01E0
03C0
0780
0F00
1E00
3C00
7830
F030
FFF0
FFF0
0000
0000
0000
0000
0000
ENDCHAR
STARTCHAR char123
ENCODING 123
SWIDTH 1776 0
DWIDTH 16 0
BBX 9 25 3 -5
BITMAP
0780
0E00
1C00
1C00
1C00
1C00
1C00
1C00
1C00
3800
7000
E000
7000
3800
1C00
1C00
1C00
1C00
1C00
1C00
1C00
1C00
0E00
0780
0000
ENDCHAR
STARTCHAR char124
ENCODING 124
SWIDTH 1776 0
DWIDTH 16 0
BBX 3 25 6 -5
BITMAP
E0
E0
E0
E0
E0
E0
E0
E0
E0
E0
E0
E0
E0
E0
E0
E0
E0
E0
E0
E0
E0
E0
E0
E0
00
ENDCHAR
STARTCHAR char125
ENCODING 125
SWIDTH 1776 0
DWIDTH 16 0
BBX 9 25 4 -5
BITMAP
F000
3800
1C00
1C00
1C00
1C00
1C00
1C00
1C00
0E00
0700
0380
0700
0E00
1C00
1C00
1C00
1C00
1C00
1C00
1C00
1C00
3800
F000
0000
ENDCHAR
STARTCHAR char126
ENCODING 126
SWIDTH 1776 0
DWIDTH 16 0
BBX 16 25 0 -5
BITMAP
0000
0000
0000
0000
0000
0000
0000
0000
0000
0000
0E03
1F86
3FFC
61F8
C070
0000
0000
0000
0000
0000
0000
0000
0000
0000
0000
ENDCHAR
ENDFONT
